<svg width="29" height="26" viewBox="0 0 29 26" fill="none" xmlns="http://www.w3.org/2000/svg">
<path d="M9.07073 18.0344L9.14146 17.8903L10.0758 15.9872L10.1032 15.9314L10.1654 15.9313L25.6904 15.9031L25.6906 15.9031C26.1672 15.9031 26.5757 15.5628 26.6609 15.0918L9.07073 18.0344ZM9.07073 18.0344H9.23123H27.8405C28.1064 18.0345 28.3614 18.1398 28.5499 18.3273C28.7384 18.5147 28.8451 18.7689 28.8468 19.0347C28.8467 19.5885 28.3948 20.0375 27.8437 20.0375H24.3031H24.1038L24.2229 20.1973C24.6229 20.7335 24.8468 21.3908 24.8468 22.0656C24.8468 23.7791 23.4541 25.1719 21.7406 25.1719C20.0271 25.1719 18.6343 23.7791 18.6343 22.0656V22.0655C18.6338 21.3917 18.8527 20.736 19.258 20.1976L19.3786 20.0375H19.1781H14.1437H13.9444L14.0636 20.1973C14.4635 20.7335 14.6875 21.3908 14.6875 22.0656C14.6875 23.7791 13.2947 25.1719 11.5812 25.1719C9.8677 25.1719 8.47498 23.7791 8.47498 22.0656V22.0655C8.47438 21.3917 8.69331 20.736 9.09861 20.1976L9.21919 20.0375H9.01873H7.05623C6.67537 20.0375 6.33171 19.8245 6.16115 19.4862L6.16078 19.4855C6.07607 19.3208 6.03915 19.1356 6.0542 18.951C6.06925 18.7664 6.13567 18.5896 6.24595 18.4408L6.24626 18.441L6.25087 18.4335L8.58837 14.6179L8.60903 14.5841L8.60103 14.5454L6.78541 5.75477L6.78533 5.75442L6.04783 2.24817L6.03113 2.16875H5.94998H2.0156C1.74956 2.16875 1.49441 2.06306 1.30628 1.87494C1.11816 1.68682 1.01248 1.43167 1.01248 1.16563C1.01248 0.89958 1.11816 0.644431 1.30628 0.456308C1.49441 0.268186 1.74956 0.1625 2.0156 0.1625H6.84373C7.31547 0.1625 7.73064 0.498394 7.82711 0.95804L7.82716 0.958295L7.99591 1.75204L8.01269 1.83098L8.09339 1.83125L27.8431 1.89687C27.8432 1.89687 27.8432 1.89687 27.8433 1.89687C27.9873 1.89774 28.1294 1.92992 28.2598 1.99118C28.3902 2.05247 28.5058 2.14139 28.5984 2.25177C28.7853 2.47565 28.862 2.77059 28.8109 3.05745L26.6609 15.0916L9.07073 18.0344ZM8.55343 3.80625L8.42975 3.80584L8.45525 3.92686L10.5521 13.88L10.5689 13.9595L10.6502 13.9594L24.7845 13.9344L24.8681 13.9342L24.8828 13.852L26.6453 3.98321L26.6662 3.86602L26.5472 3.86563L8.55343 3.80625ZM10.4937 22.0656C10.4937 22.6646 10.9822 23.1531 11.5812 23.1531C11.8696 23.1531 12.1463 23.0385 12.3502 22.8346C12.5541 22.6307 12.6687 22.354 12.6687 22.0656C12.6687 21.4666 12.1802 20.9781 11.5812 20.9781C10.9822 20.9781 10.4937 21.4666 10.4937 22.0656ZM20.6531 22.0656C20.6531 22.6646 21.1416 23.1531 21.7406 23.1531C22.029 23.1531 22.3056 23.0385 22.5096 22.8346C22.7135 22.6307 22.8281 22.354 22.8281 22.0656C22.8281 21.4666 22.3396 20.9781 21.7406 20.9781C21.1416 20.9781 20.6531 21.4666 20.6531 22.0656Z" fill="#0069B4" stroke="white" stroke-width="0.2"/>
</svg>
